<svg id="Layer_3" enable-background="new 0 0 64 64" height="512" viewBox="0 0 64 64" width="512" xmlns="http://www.w3.org/2000/svg"><g><path d="m13.232 47.018c.253-.012.509-.018.768-.018 3.694 0 6.864 1.237 8.251 3.005v-.005h29.043l-3.177-18.001c-.039.001-.078.001-.117.001-1.298 0-2.561-.421-3.6-1.2l-.8-.6c-1.039-.779-2.302-1.2-3.6-1.2-1.298 0-2.561.421-3.6 1.2l-.8.6c-1.039.779-2.302 1.2-3.6 1.2-1.298 0-2.561-.421-3.6-1.2l-.8-.6c-1.039-.779-2.302-1.2-3.6-1.2-1.298 0-2.561.421-3.6 1.2l-.8.6c-1.039.779-2.302 1.2-3.6 1.2-.039 0-.078 0-.117-.001z" fill="#f5cf88"/><path d="m29.51 31.44c-.388-.177-.764-.381-1.11-.64l-.8-.6c-1.039-.779-2.302-1.2-3.6-1.2s-2.561.421-3.6 1.2l-.8.6c-1.039.779-2.302 1.2-3.6 1.2-.039 0-.078 0-.117-.001l-2.398 13.587c6.801-2.782 12.446-7.802 16.025-14.146z" fill="#fadfb2"/><path d="m57 54c1.105 0 2-.895 2-2s-.895-2-2-2h-34.749v.005c-1.387-1.768-4.557-3.005-8.251-3.005-4.971 0-9 2.239-9 5 0 .711.267 1.388.75 2.001" fill="#e39854"/><g><path d="m32.598 11.8-1.198-1.601.4-.3c2.003-1.502 3.198-3.895 3.198-6.399v-.5h2v.5c0 3.131-1.495 6.122-3.999 8z" fill="#976947"/></g><path d="m48.117 31.999-1.826-10.346c-.168-.956-.998-1.653-1.969-1.653h-24.644c-.97 0-1.801.697-1.97 1.652l-1.826 10.346c.04.002.079.002.118.002 1.298 0 2.561-.421 3.6-1.2l.8-.6c1.039-.779 2.302-1.2 3.6-1.2 1.298 0 2.561.421 3.6 1.2l.8.6c1.039.779 2.302 1.2 3.6 1.2 1.298 0 2.561-.421 3.6-1.2l.8-.6c1.039-.779 2.302-1.2 3.6-1.2 1.298 0 2.561.421 3.6 1.2l.8.6c1.039.779 2.302 1.2 3.6 1.2.039 0 .078 0 .117-.001z" fill="#bc7f35"/><path d="m56 62h-48c-3.314 0-6-2.686-6-6 0-1.105.895-2 2-2h56c1.105 0 2 .895 2 2 0 3.314-2.686 6-6 6z" fill="#f7d881"/><path d="m2.347 58h59.308l.003.001c-.824 2.33-3.046 3.999-5.658 3.999h-48c-2.612 0-4.834-1.669-5.658-3.998z" fill="#f2c351"/><circle cx="32" cy="15" fill="#e39854" r="5"/><path d="m32 10c-3.314 0-6-2.686-6-6v-2c3.314 0 6 2.686 6 6z" fill="#78b75b"/><g><path d="m39.999 34h1.999v2h-1.999z" fill="#fadfb2"/></g><g><path d="m23 45h1.999v2h-1.999z" fill="#fadfb2"/></g><g><path d="m18 36h1.999v2h-1.999z" fill="#f5cf88"/></g><g><path d="m29 38h1.999v2h-1.999z" fill="#fadfb2"/></g><g><path d="m45 45h1.999v2h-1.999z" fill="#fadfb2"/></g><circle cx="22" cy="18" fill="#c66b60" r="2"/><circle cx="42" cy="18" fill="#c66b60" r="2"/><path d="m19.678 20c-.971 0-1.801.697-1.97 1.652l-1.826 10.346c.04.002.079.002.118.002 1.298 0 2.561-.421 3.6-1.2l.8-.6c1.039-.779 2.302-1.2 3.6-1.2s2.561.421 3.6 1.2l.8.6c.345.259.722.463 1.11.64 1.957-3.469 3.294-7.33 3.863-11.44z" fill="#d8923e"/></g></svg>